# xmcd CD database file
#
# Track frame offsets:
#	150
#	10053
#	20921
#	34424
#	58564
#	77787
#	89915
#	114580
#	125771
#	137169
#	154793
#	174959
#
# Disc length: 2588 seconds
#
# Revision: 0
# Processed by: cddbd v1.5.2PL0 Copyright (c) Steve Scherf et al.
# Submitted via: CDex 1.70beta2
#
DISCID=a40a1a0c
DTITLE=森田葉月 - Candy
DYEAR=2008
DGENRE=Jazz
TTITLE0=I can’t give you anything but love
TTITLE1=Candy
TTITLE2=Fly me to the moon
TTITLE3=Windmills of your mind
TTITLE4=You light up my life
TTITLE5=It don’t mean a thing
TTITLE6=Spring can really hang you up the most
TTITLE7=Bewitched
TTITLE8=A night in tunisia
TTITLE9=Black Orpheus
TTITLE10=Dindi
TTITLE11=If I fell
EXTD=YEAR: 2008
EXTT0=
EXTT1=
EXTT2=
EXTT3=
EXTT4=
EXTT5=
EXTT6=
EXTT7=
EXTT8=
EXTT9=
EXTT10=
EXTT11=
PLAYORDER=
